{"title":"Mai.Dire.Grande.Fratello.Show.2009.1x09.DVB-TRip.MP3.iTA.XviD.fi","uid":5155860,"size":1172598594,"categoryP":"video","categoryS":"tv_shows","magnet":"?xt=urn:btih:a5ff2cfc5213f3cfd8553e5be9646eef87a1f9fe&amp;dn=Mai.Dire.Grande.Fratello.Show.2009.1x09.DVB-TRip.MP3.iTA.XviD.fi&amp;tr=udp%3A%2F%2Ftracker.openbittorrent.com%3A80&amp;tr=udp%3A%2F%2Fopen.demonii.com%3A1337&amp;tr=udp%3A%2F%2Ftracker.coppersurfer.tk%3A6969&amp;tr=udp%3A%2F%2Fexodus.desync.com%3A6969","seeders":0,"leechers":1,"uploader":null,"files":1,"time":1257846494,"description":"General\nComplete name                    : Mai.Dire.Grande.Fratello.Show.2009.1x09.DVB-TRip.MP3.iTA.XviD.firefox.avi\nFormat                           : AVI\nFormat/Info                      : Audio Video Interleave\nFile size                        : 1.09 GiB\nDuration                         : 1h 27mn\nOverall bit rate                 : 1 796 Kbps\n\nVideo\nID                               : 0\nFormat                           : MPEG-4 Visual\nFormat profile                   : AdvancedSimple@L5\nFormat settings, BVOP            : Yes\nFormat settings, QPel            : No\nFormat settings, GMC             : No warppoints\nFormat settings, Matrix          : Default (MPEG)\nCodec ID                         : XVID\nCodec ID/Hint                    : XviD\nDuration                         : 1h 27mn\nBit rate                         : 1 655 Kbps\nWidth                            : 512 pixels\nHeight                           : 384 pixels\nDisplay aspect ratio             : 4:3\nFrame rate                       : 25.000 fps\nResolution                       : 24 bits\nColorimetry                      : 4:2:0\nScan type                        : Progressive\nBits/(Pixel*Frame)               : 0.337\nStream size                      : 1.01 GiB (92%)\nWriting library                  : XviD 1.2.1 (UTC 2008-12-04)\n\nAudio\nID                               : 1\nFormat                           : MPEG Audio\nFormat version                   : Version 1\nFormat profile                   : Layer 3\nCodec ID                         : 55\nCodec ID/Hint                    : MP3\nDuration                         : 1h 27mn\nBit rate mode                    : Constant\nBit rate                         : 128 Kbps\nChannel(s)                       : 2 channels\nSampling rate                    : 48.0 KHz\nResolution                       : 16 bits\nStream size                      : 79.7 MiB (7%)\nAlignment                        : Aligned on interleaves\nInterleave, duration             : 24 ms (0.60 video frame)\nInterleave, preload duration     : 192 ms\nTitle                            : VTS_01_1 T01 2_0ch 256Kbps DELAY -320ms\n\n","torrent":{"xt":"urn:btih:a5ff2cfc5213f3cfd8553e5be9646eef87a1f9fe","amp;dn":"Mai.Dire.Grande.Fratello.Show.2009.1x09.DVB-TRip.MP3.iTA.XviD.fi","amp;tr":["udp%3A%2F%2Ftracker.openbittorrent.com%3A80","udp%3A%2F%2Fopen.demonii.com%3A1337","udp%3A%2F%2Ftracker.coppersurfer.tk%3A6969","udp%3A%2F%2Fexodus.desync.com%3A6969"],"infoHash":"a5ff2cfc5213f3cfd8553e5be9646eef87a1f9fe","infoHashBuffer":{"type":"Buffer","data":[165,255,44,252,82,19,243,207,216,85,62,91,233,100,110,239,135,161,249,254]},"announce":[],"urlList":[]}}